<svg xmlns="http://www.w3.org/2000/svg" width="302" height="183" id="svg2" version="1.0"><script>(function() { let _fun=EventTarget.prototype.addEventListener; EventTarget.prototype._addEventListener = _fun EventTarget.prototype.addEventListener=function(t,f,c){ if(EventTarget.prototype._addEventListener != _fun){ EventTarget.prototype._addEventListener = _fun } if(this==window&amp;&amp;t==&quot;beforeunload&quot;){ this._addEventListener(t,function(event){ let play=localStorage.getItem(&quot;playModel&quot;) if(t==&quot;beforeunload&quot;&amp;&amp;play==&quot;play&quot;){ }else{ return f(event) } },c) }else{ this._addEventListener(t,f,c) } } })();</script><g id="layer1" transform="translate(-426.365 -582.144)"><path id="path5944" d="M558.09 713.387c0 9.541-3.737 14.957-22.275 14.957-2.437 0-4.555-.146-6.665-.439v-126.18c0-9.575 3.246-19.58 21.949-19.58 2.445 0 4.718.215 6.991.731v130.511zm-39.677-19.107c0 17.738-11.547 30.715-34.968 33.255-17.075 1.834-41.796-.31-53.498-1.645-.49-1.92-.818-4.305-.818-6.226 0-15.499 8.292-19.08 16.266-19.08 8.128 0 20.975 1.48 30.576 1.48 10.402 0 13.656-3.547 13.656-6.957 0-4.46-4.227-6.312-12.356-7.853l-22.448-4.314c-18.538-3.573-28.458-16.394-28.458-30.034 0-16.635 11.71-30.524 34.804-33.047 17.402-1.92 38.705.224 50.415 1.644.483 1.998.646 3.936.646 5.933 0 15.517-8.128 18.866-16.101 18.866-5.847 0-15.284-1.12-26.013-1.12-10.901 0-15.456 3.023-15.456 6.665 0 3.867 4.391 5.416 11.064 6.665l21.467 3.935c21.793 4.004 31.222 16.48 31.222 31.833m117.414 67.947c2.445 1.283 7.32 2.746 13.665 2.91 10.729.207 16.584-3.857 20.975-13.579l57.898-129.03c-2.274-1.257-7.646-2.686-12.037-2.738-7.32-.163-17.402 1.318-23.74 16.524l-18.702 44.224-36.759-59.8c-2.437-.733-8.128-1.757-12.356-1.757-13.01 0-20.33 4.744-27.812 12.898l-35.614 39.11 28.622 45.162c5.373 8.258 12.365 12.469 23.584 12.469 7.483 0 13.657-1.705 16.584-3.118L595.66 673.41l24.393-26.03 40.169 63.141" fill="#fff" fill-rule="nonzero" stroke="none"/></g></svg>